<mxfile host="app.diagrams.net" modified="2024-01-17T17:01:52.123Z" agent="Mozilla/5.0 (Windows NT 10.0; Win64; x64) AppleWebKit/537.36 (KHTML, like Gecko) Chrome/120.0.0.0 Safari/537.36" version="22.1.21" etag="-dWtYhiW95S4Vrzj89Qy" type="device">
  <diagram id="-b-xknELeb2etR1DU5iq" name="Page-1">
    <mxGraphModel dx="864" dy="425" grid="1" gridSize="10" guides="1" tooltips="1" connect="1" arrows="1" fold="1" page="1" pageScale="1" pageWidth="850" pageHeight="1100" math="0" shadow="0">
      <root>
        <mxCell id="0" />
        <mxCell id="1" parent="0" />
        <mxCell id="0Z8Sq6juyHJy16BQU4RT-1" value="" style="rounded=0;whiteSpace=wrap;html=1;strokeWidth=2;" vertex="1" parent="1">
          <mxGeometry x="60" y="20" width="780" height="310" as="geometry" />
        </mxCell>
        <mxCell id="0Z8Sq6juyHJy16BQU4RT-2" value="&lt;span style=&quot;font-size: 14px;&quot;&gt;&lt;b&gt;Stego Audio&lt;/b&gt;&lt;/span&gt;" style="rounded=1;whiteSpace=wrap;html=1;strokeWidth=2;fillColor=#dae8fc;strokeColor=#00040a;shadow=1;" vertex="1" parent="1">
          <mxGeometry x="120" y="55" width="130" height="80" as="geometry" />
        </mxCell>
        <mxCell id="0Z8Sq6juyHJy16BQU4RT-3" value="&lt;b&gt;&lt;font face=&quot;Helvetica&quot; style=&quot;font-size: 14px;&quot;&gt;Separate Header &amp;amp; Data&lt;/font&gt;&lt;/b&gt;" style="rounded=1;whiteSpace=wrap;html=1;strokeWidth=2;fillColor=#dae8fc;strokeColor=#010204;shadow=1;" vertex="1" parent="1">
          <mxGeometry x="250" y="220" width="150" height="80" as="geometry" />
        </mxCell>
        <mxCell id="0Z8Sq6juyHJy16BQU4RT-4" value="&lt;span style=&quot;font-size: 14px;&quot;&gt;&lt;b&gt;Store LSB of Data&lt;/b&gt;&lt;/span&gt;" style="rounded=1;whiteSpace=wrap;html=1;strokeWidth=2;shadow=1;fillColor=#dae8fc;strokeColor=#000000;" vertex="1" parent="1">
          <mxGeometry x="400" y="52.5" width="140" height="85" as="geometry" />
        </mxCell>
        <mxCell id="0Z8Sq6juyHJy16BQU4RT-5" value="&lt;span style=&quot;font-size: 14px;&quot;&gt;&lt;b&gt;Binary to ASCII&amp;nbsp;&lt;/b&gt;&lt;/span&gt;" style="rounded=1;whiteSpace=wrap;html=1;strokeWidth=2;fillColor=#dae8fc;strokeColor=#000000;shadow=1;glass=0;" vertex="1" parent="1">
          <mxGeometry x="550" y="220" width="130" height="80" as="geometry" />
        </mxCell>
        <mxCell id="0Z8Sq6juyHJy16BQU4RT-6" value="" style="endArrow=classic;html=1;rounded=0;exitX=0.5;exitY=1;exitDx=0;exitDy=0;entryX=0.5;entryY=0;entryDx=0;entryDy=0;strokeWidth=2;fillColor=#dae8fc;strokeColor=#000000;" edge="1" parent="1" source="0Z8Sq6juyHJy16BQU4RT-2" target="0Z8Sq6juyHJy16BQU4RT-3">
          <mxGeometry width="50" height="50" relative="1" as="geometry">
            <mxPoint x="400" y="250" as="sourcePoint" />
            <mxPoint x="450" y="200" as="targetPoint" />
          </mxGeometry>
        </mxCell>
        <mxCell id="0Z8Sq6juyHJy16BQU4RT-7" value="" style="endArrow=classic;html=1;rounded=0;exitX=0.5;exitY=0;exitDx=0;exitDy=0;entryX=0.5;entryY=1;entryDx=0;entryDy=0;strokeWidth=2;fillColor=#dae8fc;strokeColor=#000000;" edge="1" parent="1" source="0Z8Sq6juyHJy16BQU4RT-3" target="0Z8Sq6juyHJy16BQU4RT-4">
          <mxGeometry width="50" height="50" relative="1" as="geometry">
            <mxPoint x="400" y="250" as="sourcePoint" />
            <mxPoint x="450" y="200" as="targetPoint" />
          </mxGeometry>
        </mxCell>
        <mxCell id="0Z8Sq6juyHJy16BQU4RT-8" value="" style="endArrow=classic;html=1;rounded=0;exitX=0.5;exitY=1;exitDx=0;exitDy=0;entryX=0.5;entryY=0;entryDx=0;entryDy=0;strokeWidth=2;fillColor=#dae8fc;strokeColor=#000000;" edge="1" parent="1" source="0Z8Sq6juyHJy16BQU4RT-4" target="0Z8Sq6juyHJy16BQU4RT-5">
          <mxGeometry width="50" height="50" relative="1" as="geometry">
            <mxPoint x="400" y="250" as="sourcePoint" />
            <mxPoint x="450" y="200" as="targetPoint" />
          </mxGeometry>
        </mxCell>
        <mxCell id="0Z8Sq6juyHJy16BQU4RT-10" value="&lt;span style=&quot;font-size: 14px;&quot;&gt;&lt;b&gt;Extracted Audio&lt;/b&gt;&lt;/span&gt;" style="rounded=1;whiteSpace=wrap;html=1;strokeWidth=2;fillColor=#dae8fc;strokeColor=#000000;shadow=1;glass=0;" vertex="1" parent="1">
          <mxGeometry x="680" y="57.5" width="130" height="80" as="geometry" />
        </mxCell>
        <mxCell id="0Z8Sq6juyHJy16BQU4RT-11" value="" style="endArrow=classic;html=1;rounded=0;entryX=0.5;entryY=1;entryDx=0;entryDy=0;exitX=0.5;exitY=0;exitDx=0;exitDy=0;strokeWidth=2;" edge="1" parent="1" source="0Z8Sq6juyHJy16BQU4RT-5" target="0Z8Sq6juyHJy16BQU4RT-10">
          <mxGeometry width="50" height="50" relative="1" as="geometry">
            <mxPoint x="400" y="250" as="sourcePoint" />
            <mxPoint x="450" y="200" as="targetPoint" />
          </mxGeometry>
        </mxCell>
        <mxCell id="0Z8Sq6juyHJy16BQU4RT-9" value="Extracting Process" style="text;html=1;align=center;verticalAlign=middle;resizable=0;points=[];autosize=1;dashed=1;fillColor=default;strokeColor=default;strokeWidth=1;rounded=1;" vertex="1" parent="1">
          <mxGeometry x="60" y="20" width="120" height="30" as="geometry" />
        </mxCell>
      </root>
    </mxGraphModel>
  </diagram>
</mxfile>
